<svg width="40" height="40" viewBox="0 0 40 40" fill="none" xmlns="http://www.w3.org/2000/svg">
<g clip-path="url(#clip0_70_64)">
<path fill-rule="evenodd" clip-rule="evenodd" d="M5 10C5 8.67392 5.52678 7.40215 6.46447 6.46447C7.40215 5.52678 8.67392 5 10 5H25C27.895 5 30.5017 6.23 32.3283 8.195C32.8607 7.84266 33.4014 7.50312 33.95 7.17667C34.3346 6.95853 34.79 6.90209 35.2162 7.01977C35.6424 7.13745 36.0044 7.4196 36.2225 7.80417C36.4406 8.18873 36.4971 8.6442 36.3794 9.07038C36.2617 9.49655 35.9796 9.85853 35.595 10.0767C35.42 10.1767 34.135 10.9983 34.16 10.9817C34.7158 12.2483 35.0019 13.6168 35 15V30C35 31.3261 34.4732 32.5979 33.5355 33.5355C32.5979 34.4732 31.3261 35 30 35H10C8.67392 35 7.40215 34.4732 6.46447 33.5355C5.52678 32.5979 5 31.3261 5 30V10ZM32.76 11.9567C32.3493 10.9105 31.7313 9.95808 30.9433 9.15667C29.9796 9.8518 29.0401 10.58 28.1267 11.34C25.39 13.6167 22.1033 16.8233 19.395 20.87C18.555 19.759 17.5772 18.7593 16.485 17.895C15.9797 17.497 15.4416 17.1424 14.8767 16.835C14.635 16.7002 14.3837 16.5832 14.125 16.485C13.7099 16.3327 13.2514 16.3516 12.8502 16.5374C12.449 16.7232 12.1381 17.0608 11.9858 17.4758C11.8336 17.8909 11.8524 18.3495 12.0382 18.7506C12.224 19.1518 12.5616 19.4627 12.9767 19.615C13.0183 19.6317 13.5933 19.8683 14.4367 20.525C15.4 21.275 16.73 22.59 18.0133 24.7867C18.161 25.0396 18.3726 25.2491 18.627 25.3942C18.8814 25.5393 19.1695 25.6148 19.4623 25.6131C19.7551 25.6114 20.0424 25.5326 20.2951 25.3846C20.5477 25.2366 20.757 25.0246 20.9017 24.77C23.5417 20.1167 27.2133 16.4367 30.2583 13.9033C31.0707 13.2273 31.9051 12.578 32.76 11.9567Z" fill="#5D5D5D"/>
</g>
<defs>
<clipPath id="clip0_70_64">
<rect width="40" height="40" fill="white"/>
</clipPath>
</defs>
</svg>
