<svg width="40" height="40" viewBox="0 0 40 40" fill="none" xmlns="http://www.w3.org/2000/svg">
<path d="M16.6666 6.66665C16.6666 5.78259 17.0178 4.93474 17.6429 4.30962C18.268 3.6845 19.1159 3.33331 19.9999 3.33331C20.884 3.33331 21.7318 3.6845 22.3569 4.30962C22.9821 4.93474 23.3333 5.78259 23.3333 6.66665V8.73331C26.3111 9.4744 28.9549 11.1915 30.8429 13.6105C32.7309 16.0296 33.7544 19.0113 33.7499 22.08C33.7499 22.4115 33.6182 22.7294 33.3838 22.9639C33.1494 23.1983 32.8314 23.33 32.4999 23.33H7.49992C7.1684 23.33 6.85046 23.1983 6.61604 22.9639C6.38161 22.7294 6.24992 22.4115 6.24992 22.08C6.24992 15.6466 10.6966 10.25 16.6666 8.74831V6.66665ZM22.0833 12.5C21.7517 12.5 21.4338 12.6317 21.1994 12.8661C20.9649 13.1005 20.8333 13.4185 20.8333 13.75C20.8333 14.0815 20.9649 14.3994 21.1994 14.6339C21.4338 14.8683 21.7517 15 22.0833 15C24.1716 15 25.6549 16.03 26.8933 17.8C26.9874 17.9345 27.107 18.0491 27.2455 18.1374C27.3839 18.2256 27.5383 18.2857 27.7 18.3143C27.8616 18.3428 28.0273 18.3393 28.1876 18.3038C28.3479 18.2683 28.4996 18.2016 28.6341 18.1075C28.7686 18.0134 28.8832 17.8937 28.9715 17.7553C29.0597 17.6168 29.1198 17.4624 29.1484 17.3007C29.1769 17.1391 29.1734 16.9734 29.1379 16.8131C29.1024 16.6529 29.0357 16.5011 28.9416 16.3666C27.3916 14.15 25.2266 12.5 22.0833 12.5ZM3.33325 28.3333C3.33325 27.4493 3.68444 26.6014 4.30956 25.9763C4.93468 25.3512 5.78253 25 6.66659 25H33.3333C34.2173 25 35.0652 25.3512 35.6903 25.9763C36.3154 26.6014 36.6666 27.4493 36.6666 28.3333C36.6666 29.2174 36.3154 30.0652 35.6903 30.6903C35.0652 31.3155 34.2173 31.6666 33.3333 31.6666H6.66659C5.78253 31.6666 4.93468 31.3155 4.30956 30.6903C3.68444 30.0652 3.33325 29.2174 3.33325 28.3333Z" fill="#5D5D5D"/>
</svg>
